<svg xmlns="http://www.w3.org/2000/svg" viewBox="0 0 24 24" width="128" height="128">
  <rect x="2" y="2" width="20" height="20" rx="5.25" fill="#EFF6FF" stroke="#BFDBFE" stroke-width="1"/>
  <path d="M6 9V6.8C6 6.36 6.36 6 6.8 6H9" fill="none" stroke="#60A5FA" stroke-width="1.9" stroke-linecap="round" stroke-linejoin="round"/>
  <path d="M15 6H17.2C17.64 6 18 6.36 18 6.8V9" fill="none" stroke="#60A5FA" stroke-width="1.9" stroke-linecap="round" stroke-linejoin="round"/>
  <path d="M9 18H6.8C6.36 18 6 17.64 6 17.2V15" fill="none" stroke="#2563EB" stroke-width="1.9" stroke-linecap="round" stroke-linejoin="round"/>
  <path d="M18 15V17.2C18 17.64 17.64 18 17.2 18H15" fill="none" stroke="#2563EB" stroke-width="1.9" stroke-linecap="round" stroke-linejoin="round"/>
  <rect x="8" y="7.5" width="6.6" height="6.6" rx="1.6" fill="#FFFFFF" stroke="#2563EB" stroke-width="1.6"/>
  <rect x="10.4" y="9.9" width="6.6" height="6.6" rx="1.6" fill="#FFFFFF" stroke="#2563EB" stroke-width="1.6"/>
  <path d="M18.4 4.8v1.6M17.6 5.6h1.6" stroke="#60A5FA" stroke-width="1.4" stroke-linecap="round"/>
</svg>